PathFileType	3	(X/Y/Z)	D:\VICON_DB\Goncalves\Pilot01\09-03-2026\bw_sq_120_01.trc
DataRate	CameraRate	NumFrames	NumMarkers	Units	OrigDataRate	OrigDataStartFrame	OrigNumFrames
200.0	200.0	8	34	mm	200.0	639	730	
Frame#	Time	LASI			RASI			LPSI			RPSI			LTHI			LTHAP			LTHAD			LKNE			LKNM			LTIB			LTIAP			LTIAD			LANK			LMED			LHEE			LTOE			LFMH			LSMH			LVMH			RTHI			RTHAP			RTHAD			RKNE			RKNM			RTIB			RTIAP			RTIAD			RANK			RMED			RHEE			RTOE			RFMH			RSMH			RVMH			
		X1	Y1	Z1	X2	Y2	Z2	X3	Y3	Z3	X4	Y4	Z4	X5	Y5	Z5	X6	Y6	Z6	X7	Y7	Z7	X8	Y8	Z8	X9	Y9	Z9	X10	Y10	Z10	X11	Y11	Z11	X12	Y12	Z12	X13	Y13	Z13	X14	Y14	Z14	X15	Y15	Z15	X16	Y16	Z16	X17	Y17	Z17	X18	Y18	Z18	X19	Y19	Z19	X20	Y20	Z20	X21	Y21	Z21	X22	Y22	Z22	X23	Y23	Z23	X24	Y24	Z24	X25	Y25	Z25	X26	Y26	Z26	X27	Y27	Z27	X28	Y28	Z28	X29	Y29	Z29	X30	Y30	Z30	X31	Y31	Z31	X32	Y32	Z32	X33	Y33	Z33	X34	Y34	Z34	
639	3.19	93.898186	895.62451	-1077.6597	88.270767	896.78265	-1339.1823				288.27005	931.28784	-1242.8031	110.18393	696.30762	-1017.0159	126.37945	768.32483	-1019.1589	161.98874	636.36566	-992.12549	211.58162	479.19098	-993.15674				263.5607	290.50644	-955.54358	189.702	355.05182	-1004.9459	218.52802	258.05536	-966.11145	289.42761	74.55365	-946.66998				324.22192	63.307598	-1003.7583	206.56693	71.762093	-952.75244	148.95853	45.139275	-974.08099				169.41673	25.51156	-895.7428	150.08067	630.07501	-1414.7579	100.2704	751.66138	-1382.004	85.68119	657.06171	-1378.3441	206.39589	496.18222	-1412.5785				238.29449	305.64221	-1453.2079	188.15964	347.46423	-1400.8142	195.55545	267.17978	-1413.9507	280.28995	65.363564	-1452.8096				309.72202	59.779522	-1406.7874	185.49341	69.086456	-1452.2183	132.62328	49.301834	-1433.9744				155.88666	17.303799	-1504.6556
640	3.195	93.814125	895.71466	-1077.6589	88.18084	896.84265	-1339.2026				288.21667	931.24384	-1242.8114	110.00927	696.33069	-1016.9686	126.2308	768.34265	-1019.1561	161.82755	636.36047	-992.12866	211.40839	479.17477	-993.138				263.45697	290.50845	-955.52124	189.56227	355.01596	-1004.9296	218.44614	258.03036	-966.11084	289.41968	74.553329	-946.67908				324.21136	63.307323	-1003.7414	206.5629	71.769325	-952.75543	148.95284	45.14217	-974.08661				169.40634	25.517199	-895.74561	149.87871	630.05212	-1414.73	100.09379	751.65735	-1382.0016	85.477882	657.05591	-1378.3406	206.21175	496.16458	-1412.5769				238.18288	305.63428	-1453.2097	188.06175	347.43872	-1400.7856	195.47868	267.14941	-1413.9346	280.28232	65.361732	-1452.8237				309.6933	59.761311	-1406.807	185.494	69.085846	-1452.2097	132.61604	49.299576	-1433.9688				155.88298	17.310242	-1504.6492
641	3.2	93.742096	895.79492	-1077.6693	88.107277	896.90588	-1339.2346				288.181	931.20709	-1242.8225	109.85664	696.34766	-1016.9345	126.09693	768.35474	-1019.1595	161.68687	636.35217	-992.13696	211.25806	479.15714	-993.12634				263.36734	290.50989	-955.50153	189.44269	354.98111	-1004.9175	218.37755	258.00687	-966.11499	289.41379	74.55127	-946.68738				324.20334	63.302532	-1003.7242	206.56009	71.776054	-952.75891	148.9481	45.145115	-974.09271				169.39694	25.522877	-895.74878	149.68442	630.03387	-1414.7172	99.934601	751.65845	-1382.0083	85.284714	657.05695	-1378.3459	206.02864	496.14612	-1412.5795				238.07202	305.62567	-1453.2117	187.96202	347.41309	-1400.76	195.40024	267.1185	-1413.9207	280.27377	65.359962	-1452.8358				309.66483	59.743774	-1406.8207	185.49373	69.084885	-1452.1997	132.60809	49.297169	-1433.9634				155.87961	17.316097	-1504.6428
642	3.205	93.68219	895.86493	-1077.6902	88.049187	896.97131	-1339.2775				288.16006	931.17804	-1242.8368	109.7263	696.35834	-1016.9136	125.97819	768.36066	-1019.1691	161.56685	636.34082	-992.15027	211.13069	479.13794	-993.1217				263.29257	290.51059	-955.48474	189.34349	354.94727	-1004.9097	218.32269	257.98495	-966.12378	289.40958	74.547455	-946.69489				324.19778	63.293175	-1003.7073	206.55864	71.782158	-952.76282	148.94429	45.148129	-974.09924				169.38861	25.528488	-895.75238	149.50081	630.01929	-1414.7185	99.793098	751.66357	-1382.0244	85.103226	657.06342	-1378.3607	205.85054	496.1272	-1412.5852				237.96509	305.6167	-1453.2126	187.86327	347.38776	-1400.7372	195.32248	267.08771	-1413.9086	280.26453	65.358215	-1452.8455				309.63693	59.727116	-1406.8278	185.49283	69.083488	-1452.1884	132.59981	49.294682	-1433.958				155.87651	17.321314	-1504.637
643	3.21	93.634499	895.92456	-1077.7211	88.00573	897.03741	-1339.3308				288.151	931.15649	-1242.8552	109.61829	696.36279	-1016.9058	125.87498	768.36053	-1019.1842	161.46753	636.32617	-992.16827	211.02609	479.11719	-993.12396				263.23312	290.51059	-955.47095	189.26459	354.91449	-1004.9063	218.28183	257.96466	-966.13678	289.40686	74.541924	-946.70129				324.19446	63.279427	-1003.6911	206.55862	71.787544	-952.76746	148.94141	45.151272	-974.10614				169.38145	25.533987	-895.75641	149.33099	630.00787	-1414.7318	99.669662	751.67188	-1382.0498	84.935158	657.07416	-1378.3855	205.68149	496.10831	-1412.5939				237.86525	305.60764	-1453.2123	187.76816	347.36313	-1400.7172	195.2478	267.05768	-1413.8984	280.255	65.356377	-1452.8527				309.61035	59.711487	-1406.8287	185.49167	69.081635	-1452.1761	132.59157	49.292202	-1433.9528				155.87383	17.325888	-1504.6313
644	3.215	93.598984	895.97369	-1077.7611	87.976112	897.10303	-1339.3933				288.15106	931.14252	-1242.8777	109.53242	696.36139	-1016.9103	125.7877	768.35468	-1019.2042	161.38872	636.30865	-992.19055	210.94374	479.09506	-993.13263				263.18918	290.50989	-955.46014	189.20558	354.88293	-1004.9069	218.25496	257.94617	-966.15356	289.4054	74.53479	-946.70648				324.19296	63.261749	-1003.6761	206.5601	71.792213	-952.77264	148.93947	45.154686	-974.11328				169.37553	25.539333	-895.76105	149.17802	629.99878	-1414.7561	99.564751	751.68243	-1382.0844	84.78244	657.08777	-1378.4207	205.52553	496.08981	-1412.6046				237.77556	305.59857	-1453.2102	187.67929	347.33948	-1400.7004	195.1785	267.02924	-1413.8904	280.24557	65.354309	-1452.8578				309.58633	59.696915	-1406.8248	185.49062	69.079285	-1452.1627	132.58382	49.289875	-1433.9474				155.87154	17.329851	-1504.6262
645	3.22	93.575432	896.01276	-1077.8092	87.959648	897.16669	-1339.4645				288.15762	931.13586	-1242.9052	109.46836	696.35461	-1016.9265	125.71671	768.34344	-1019.2285	161.33006	636.2887	-992.21655	210.88293	479.0719	-993.1474				263.16074	290.50851	-955.45209	189.1658	354.85278	-1004.9114	218.24176	257.92947	-966.17358	289.40512	74.526215	-946.71039				324.19299	63.240849	-1003.6635	206.563	71.796257	-952.77826	148.93846	45.158554	-974.12067				169.37094	25.544519	-895.76617	149.04489	629.99182	-1414.7899	99.478874	751.6947	-1382.1283	84.647079	657.10321	-1378.4664	205.38663	496.07214	-1412.6171				237.69894	305.58963	-1453.2064	187.59906	347.31729	-1400.6879	195.11674	267.00293	-1413.884	280.23651	65.351822	-1452.8608				309.56601	59.683403	-1406.8173	185.49008	69.076469	-1452.149	132.57692	49.287838	-1433.942				155.86974	17.333294	-1504.6215
646	3.225	93.563606	896.0423	-1077.8646	87.955658	897.22729	-1339.543				288.16827	931.13696	-1242.9374	109.42566	696.34332	-1016.9538	125.66221	768.3277	-1019.2566	161.29103	636.26672	-992.24554	210.84265	479.04803	-993.16742				263.14764	290.50668	-955.44659	189.1441	354.82434	-1004.9196	218.24182	257.91486	-966.19617	289.40579	74.516411	-946.71332				324.19412	63.217693	-1003.6537	206.56734	71.799759	-952.78442	148.93832	45.163082	-974.12817				169.36771	25.549528	-895.77197	148.93436	629.98645	-1414.8319	99.41259	751.7077	-1382.1809	84.531166	657.11957	-1378.5228	205.26837	496.05569	-1412.6307				237.63806	305.58078	-1453.2006	187.52977	347.29684	-1400.6794	195.06448	266.97952	-1413.88	280.22833	65.348717	-1452.8622				309.55035	59.670937	-1406.808	185.4904	69.073296	-1452.1349	132.57123	49.286243	-1433.9365				155.86836	17.336313	-1504.6172
